<?xml version="1.0" encoding="UTF-8"?>
<svg xmlns="http://www.w3.org/2000/svg" xmlns:xlink="http://www.w3.org/1999/xlink" width="126px" height="40px"
     viewBox="0 0 126 40"> <!-- Generator: Sketch 55.2 (78181) - https://sketchapp.com -->
    <title>donatty_logo</title>
    <desc>Created with Sketch.</desc>
    <g id="styleguide" stroke="none" stroke-width="1" fill="none" fill-rule="evenodd">
        <g id="Brandbook" transform="translate(-80.000000, -92.000000)" fill="#FFFFFF">
            <g id="donatty_logo" transform="translate(80.000000, 92.000000)">
                <g id="logo_mark">
                    <path d="M10.0766403,15 L9.44858903,12.9588334 C8.29279963,9.20251787 10.4009426,5.22047003 14.1572582,4.06468062 C14.5220274,3.95244393 14.8947226,3.86989034 15.2717002,3.81756769 C16.8475537,1.51266191 19.4971263,0 22.5,0 L25,0 L25,27.5 C25,34.4035594 19.4035594,40 12.5,40 C5.59644063,40 0,34.4035594 0,27.5 L0,18.75 L3.19444444,18.75 C3.41045403,18.75 3.62421943,18.7590917 3.83546161,18.776927 C3.77912351,18.3593971 3.75,17.932961 3.75,17.5 L3.75,15 L10.0766403,15 Z M22.5,27.5 L22.5,2.5 C19.0482203,2.5 16.25,5.29822031 16.25,8.75 L16.25,18.2268963 C15.0919607,17.7581339 13.8261256,17.5 12.5,17.5 L6.25,17.5 C6.25,20.9517797 8.73730695,23.75 11.8055556,23.75 L12.5,23.75 C14.5710678,23.75 16.25,25.4289322 16.25,27.5 C16.25,29.5710678 14.5710678,31.25 12.5,31.25 C10.4289322,31.25 8.75,29.5710678 8.75,27.5 C8.75,24.0482203 6.26269305,21.25 3.19444444,21.25 L2.5,21.25 L2.5,27.5 C2.5,33.0228475 6.9771525,37.5 12.5,37.5 C18.0228475,37.5 22.5,33.0228475 22.5,27.5 Z M12.8853265,15.0058259 C13.1761585,15.0146318 13.4644923,15.0333721 13.75,15.0617191 L13.75,8.75 C13.75,8.10107051 13.820642,7.46864033 13.9546554,6.85997999 C12.1211069,7.90828077 11.1909208,10.1204926 11.8380366,12.2236188 L12.8853265,15.0058259 L12.8853265,15.0058259 Z M11.25,27.5 C11.25,28.1903559 11.8096441,28.75 12.5,28.75 C13.1903559,28.75 13.75,28.1903559 13.75,27.5 C13.75,26.8096441 13.1903559,26.25 12.5,26.25 L11.8055556,26.25 C11.589546,26.25 11.3757806,26.2409083 11.1645384,26.223073 C11.2208765,26.6406029 11.25,27.067039 11.25,27.5 Z"
                          id="Shape" />
                </g>
                <path d="M42,29.1973068 C41.1174799,29.7078171 40.0928614,30 39,30 C35.6862915,30 33,27.3137085 33,24 C33,20.6862915 35.6862915,18 39,18 C40.0928614,18 41.1174799,18.2921829 42,18.8026932 L42,15 L42,12 L45,12 L45,30 L42,30 L42,29.1973068 Z M39,21 C37.3431458,21 36,22.3431458 36,24 C36,25.6568542 37.3431458,27 39,27 C40.6568542,27 42,25.6568542 42,24 C42,22.3431458 40.6568542,21 39,21 Z M123,29.1973068 C122.11748,29.7078171 121.092861,30 120,30 C116.686292,30 114,27.3137085 114,24 L114,18 L117,18 L117,24 C117,25.6568542 118.343146,27 120,27 C121.656854,27 123,25.6568542 123,24 L123,18 L126,18 L126,36 L123,36 L123,29.1973068 Z M90,18 L96,18 L96,21 L90,21 L90,24 C90,25.6568542 91.3431458,27 93,27 C94.6568542,27 96,25.6568542 96,24 L99,24 C99,27.3137085 96.3137085,30 93,30 C89.6862915,30 87,27.3137085 87,24 L87,15 L88.5,12 L90,12 L90,18 Z M79.5,12 L82.5,12 L81,15 L78,15 L79.5,12 Z M103.5,18 L109.5,18 L109.5,21 L103.5,21 L103.5,24 C103.5,25.6568542 104.843146,27 106.5,27 C108.156854,27 109.5,25.6568542 109.5,24 L112.5,24 C112.5,27.3137085 109.813708,30 106.5,30 C103.186292,30 100.5,27.3137085 100.5,24 L100.5,12 L103.5,12 L103.5,18 Z M63,18.8026932 C63.8825201,18.2921829 64.9071386,18 66,18 C69.3137085,18 72,20.6862915 72,24 L72,30 L69,30 L69,24 C69,22.3431458 67.6568542,21 66,21 C64.3431458,21 63,22.3431458 63,24 L63,30 L60,30 L60,24 L60,18 L63,18 L63,18.8026932 Z M52.5,18 C55.8137085,18 58.5,20.6862915 58.5,24 C58.5,27.3137085 55.8137085,30 52.5,30 C49.1862915,30 46.5,27.3137085 46.5,24 C46.5,20.6862915 49.1862915,18 52.5,18 Z M52.5,21 C50.8431458,21 49.5,22.3431458 49.5,24 C49.5,25.6568542 50.8431458,27 52.5,27 C54.1568542,27 55.5,25.6568542 55.5,24 C55.5,22.3431458 54.1568542,21 52.5,21 Z M85.5,24 L85.5,30 L82.5,30 L82.5,29.1973068 C81.6174799,29.7078171 80.5928614,30 79.5,30 C76.1862915,30 73.5,27.3137085 73.5,24 C73.5,20.6862915 76.1862915,18 79.5,18 C82.8137085,18 85.5,20.6862915 85.5,24 Z M79.5,21 C77.8431458,21 76.5,22.3431458 76.5,24 C76.5,25.6568542 77.8431458,27 79.5,27 C81.1568542,27 82.5,25.6568542 82.5,24 C82.5,22.3431458 81.1568542,21 79.5,21 Z"
                      id="Combined-Shape" />
            </g>
        </g>
    </g>
</svg>